<svg width="242" viewBox="0 0 1250 222" fill="none" xmlns="http://www.w3.org/2000/svg"><path d="M22.3167 6.83789V102.121H57.6833V121.35H0V6.83789H22.3167Z" fill="#000000"></path><path d="M91.8504 6.83789V78.7712C91.8504 87.5254 94.7671 92.8504 97.3421 95.7671C100.605 99.7171 106.613 103.663 115.538 103.663C124.463 103.663 130.475 99.7129 133.734 95.7671C136.309 92.8462 139.225 87.5254 139.225 78.7712V6.83789H161.542V76.8837C161.542 87.7004 159.825 98.6879 152.959 107.442C144.717 118.259 130.296 123.921 115.534 123.921C100.771 123.921 86.3504 118.255 78.1087 107.442C71.2421 98.6879 69.5254 87.7004 69.5254 76.8837V6.83789H91.8421H91.8504Z" fill="#000000"></path><path d="M270.738 117.23C263.871 120.835 254.771 123.926 242.413 123.926C222.325 123.926 210.138 117.06 200.525 107.96C187.304 95.2553 182.154 81.0053 182.154 64.1803C182.154 43.4053 190.738 28.472 200.525 19.372C212.029 8.55534 226.275 4.26367 242.588 4.26367C250.658 4.26367 260.271 5.63867 270.742 11.3012V37.397C260.271 25.3803 247.221 24.522 243.1 24.522C220.096 24.522 205.158 43.4053 205.158 64.522C205.158 89.9303 224.729 103.664 243.958 103.664C254.604 103.664 264.046 99.0303 270.742 91.1303V117.226L270.738 117.23Z" fill="#000000"></path><path d="M314.1 68.9879L274.783 6.83789H301.221L325.771 46.6671L350.321 6.83789H376.758L336.412 68.9837V121.346H314.096V68.9837L314.1 68.9879Z" fill="#000000"></path><path d="M451.783 6.83789V121.346H429.467V6.83789H451.783Z" fill="#000000"></path><path d="M681.963 26.0671V121.35H659.647V26.0671H633.896V6.83789H707.717V26.0671H681.967H681.963Z" fill="#000000"></path><path d="M744.11 51.1337H792.522V6.83789H814.839V121.346H792.522V70.3587H744.11V121.346H721.793V6.83789H744.11V51.1337Z" fill="#000000"></path><path d="M898.921 26.0671H857.717V51.6462H897.205V70.8754H857.717V102.121H898.921V121.35H835.4V6.83789H898.921V26.0671Z" fill="#000000"></path><path d="M1016.86 32.9328C1010.17 24.0036 1002.27 23.1453 998.151 23.1453C986.134 23.1453 982.355 30.6995 982.355 36.537C982.355 39.2828 983.213 41.8578 985.959 44.262C988.705 46.837 992.484 48.212 999.692 50.787C1008.62 53.8786 1017.03 56.9661 1022.87 62.2911C1028.02 66.9245 1032.65 74.6536 1032.65 86.3245C1032.65 108.641 1016.51 123.92 992.821 123.92C971.705 123.92 959.342 111.045 953.334 102.287L967.926 88.3828C973.417 99.5411 983.892 103.662 991.959 103.662C1002.09 103.662 1009.64 97.4828 1009.64 87.8661C1009.64 83.7453 1008.27 80.4828 1005.18 77.5661C1000.89 73.6161 994.021 71.387 987.496 69.1536C981.488 67.0911 974.276 64.3453 968.438 59.1953C964.663 55.9328 959.338 49.5828 959.338 37.9078C959.338 21.0828 970.667 4.25781 996.076 4.25781C1003.29 4.25781 1016.85 5.63281 1028.52 17.6495L1016.85 32.9286L1016.86 32.9328Z" fill="#000000"></path><path d="M1074.55 55.2504L1116.61 6.83789H1144.76L1096.35 59.7129L1147.34 121.346H1117.81L1077.12 70.0129L1074.55 72.5879V121.346H1052.23V6.83789H1074.55V55.2504Z" fill="#000000"></path><path d="M1187.34 68.9876L1148.03 6.8418H1174.46L1199.01 46.671L1223.56 6.8418H1250L1209.65 68.9876V121.35H1187.34V68.9876Z" fill="#000000"></path><path d="M472.592 121.804V0L558 77.7583L557.813 7.69583H580.146V128.817L494.738 50.0792V122.046L472.596 121.804H472.592Z" fill="#000000"></path><path d="M418.228 176.354V213.024H430.815V219.191H411.678V176.354H418.228Z" fill="#000000"></path><path d="M483.002 197.805C483.002 210.392 473.561 220.026 460.719 220.026C447.877 220.026 438.436 210.392 438.436 197.805C438.436 185.217 447.877 175.584 460.719 175.584C473.561 175.584 483.002 185.217 483.002 197.805ZM476.452 197.805C476.452 188.301 469.902 181.621 460.719 181.621C451.536 181.621 444.986 188.301 444.986 197.805C444.986 207.309 451.536 213.988 460.719 213.988C469.902 213.988 476.452 207.309 476.452 197.805Z" fill="#000000"></path><path d="M514.381 185.863C513.998 184.901 513.418 184.001 512.456 183.167C511.106 182.076 509.693 181.626 507.831 181.626C503.848 181.626 501.793 184.001 501.793 186.763C501.793 188.046 502.243 190.296 506.418 191.963L510.723 193.696C518.623 196.909 520.806 201.405 520.806 206.284C520.806 214.438 515.027 220.026 506.998 220.026C502.052 220.026 499.098 218.163 496.914 215.721C494.602 213.151 493.577 210.326 493.318 207.371L499.806 205.959C499.806 208.08 500.577 210.067 501.606 211.417C502.827 212.959 504.623 213.988 507.193 213.988C511.177 213.988 514.256 211.096 514.256 206.796C514.256 202.496 510.914 200.63 508.089 199.476L503.981 197.742C500.448 196.267 495.248 193.309 495.248 186.888C495.248 181.109 499.743 175.584 507.773 175.584C512.398 175.584 515.031 177.317 516.377 178.476C517.531 179.505 518.752 180.98 519.652 182.78L514.385 185.863H514.381Z" fill="#000000"></path><path d="M582.007 208.85H563.703L559.016 219.191H551.953L573.274 173.85L593.57 219.191H586.507L582.011 208.85H582.007ZM579.374 202.683L573.016 188.17L566.399 202.683H579.37H579.374Z" fill="#000000"></path><path d="M604.586 219.192V173.467L635.669 206.029V176.358H642.219V221.829L611.136 189.271V219.2H604.586V219.192Z" fill="#000000"></path><path d="M680.22 196.909H697.883V197.23C697.883 204.55 695.699 210.525 691.524 214.571C687.091 218.875 681.829 220.03 676.945 220.03C670.716 220.03 666.283 218.23 662.366 214.184C658.191 209.88 656.008 204.167 656.008 198C656.008 191.321 658.704 185.542 662.237 182.009C665.899 178.284 671.741 175.588 678.358 175.588C682.212 175.588 686.191 176.421 689.533 178.284C693.066 180.275 695.249 182.78 696.47 184.705L691.27 188.367C689.987 186.567 688.058 184.642 686.004 183.488C683.629 182.075 681.058 181.625 678.424 181.625C672.837 181.625 669.241 183.938 667.12 186.059C664.295 188.884 662.562 193.446 662.562 198.067C662.562 202.371 664.166 206.671 666.995 209.692C669.949 212.838 673.612 213.996 677.72 213.996C681.445 213.996 684.529 212.905 687.291 210.209C689.666 207.896 690.629 205.392 690.887 202.95H680.224V196.913L680.22 196.909Z" fill="#000000"></path><path d="M735.161 182.522H718.077V193.376H734.648V199.543H718.077V213.03H735.161V219.197H711.527V176.359H735.161V182.526V182.522Z" fill="#000000"></path><path d="M756.052 176.354V213.024H768.639V219.191H749.502V176.354H756.052Z" fill="#000000"></path><path d="M803.569 182.522H786.486V193.376H803.056V199.543H786.486V213.03H803.569V219.197H779.936V176.359H803.569V182.526V182.522Z" fill="#000000"></path><path d="M835.436 185.863C835.052 184.901 834.473 184.001 833.511 183.167C832.161 182.076 830.748 181.626 828.886 181.626C824.902 181.626 822.848 184.001 822.848 186.763C822.848 188.046 823.298 190.296 827.473 191.963L831.777 193.696C839.677 196.909 841.861 201.405 841.861 206.284C841.861 214.438 836.081 220.026 828.052 220.026C823.106 220.026 820.152 218.163 817.969 215.721C815.656 213.151 814.631 210.326 814.373 207.371L820.861 205.959C820.861 208.08 821.631 210.067 822.661 211.417C823.881 212.959 825.677 213.988 828.248 213.988C832.231 213.988 835.311 211.096 835.311 206.796C835.311 202.496 831.973 200.63 829.144 199.476L825.036 197.742C821.502 196.267 816.302 193.309 816.302 186.888C816.302 181.109 820.798 175.584 828.827 175.584C833.452 175.584 836.086 177.317 837.431 178.476C838.586 179.505 839.806 180.98 840.706 182.78L835.44 185.863H835.436Z" fill="#000000"></path></svg>